<svg xmlns="http://www.w3.org/2000/svg" xmlns:xlink="http://www.w3.org/1999/xlink" width="400" zoomAndPan="magnify" viewBox="0 0 300 525.000007" height="700" preserveAspectRatio="xMidYMid meet" version="1.0"><defs><filter x="0%" y="0%" width="100%" height="100%" id="3df748c2b6"><feColorMatrix values="0 0 0 0 1 0 0 0 0 1 0 0 0 0 1 0 0 0 1 0" color-interpolation-filters="sRGB"/></filter><clipPath id="c7f37686d6"><path d="M 0.285156 0 L 299.714844 0 L 299.714844 524 L 0.285156 524 Z M 0.285156 0 " clip-rule="nonzero"/></clipPath><linearGradient x1="-75" gradientTransform="matrix(0.748574, 0, 0, 0.748574, 0.285169, 0.000019962)" y1="75" x2="474.999977" gradientUnits="userSpaceOnUse" y2="624.999977" id="0fbb61c7e8"><stop stop-opacity="1" stop-color="rgb(18.798828%, 54.899597%, 64.698792%)" offset="0"/><stop stop-opacity="1" stop-color="rgb(18.676758%, 54.638672%, 64.549255%)" offset="0.00390625"/><stop stop-opacity="1" stop-color="rgb(18.554688%, 54.379272%, 64.399719%)" offset="0.0078125"/><stop stop-opacity="1" stop-color="rgb(18.431091%, 54.118347%, 64.248657%)" offset="0.0117188"/><stop stop-opacity="1" stop-color="rgb(18.309021%, 53.858948%, 64.099121%)" offset="0.015625"/><stop stop-opacity="1" stop-color="rgb(18.185425%, 53.598022%, 63.948059%)" offset="0.0195312"/><stop stop-opacity="1" stop-color="rgb(18.063354%, 53.338623%, 63.798523%)" offset="0.0234375"/><stop stop-opacity="1" stop-color="rgb(17.939758%, 53.077698%, 63.648987%)" offset="0.0273438"/><stop stop-opacity="1" stop-color="rgb(17.817688%, 52.818298%, 63.499451%)" offset="0.03125"/><stop stop-opacity="1" stop-color="rgb(17.694092%, 52.557373%, 63.348389%)" offset="0.0351562"/><stop stop-opacity="1" stop-color="rgb(17.572021%, 52.297974%, 63.198853%)" offset="0.0390625"/><stop stop-opacity="1" stop-color="rgb(17.449951%, 52.037048%, 63.049316%)" offset="0.0429688"/><stop stop-opacity="1" stop-color="rgb(17.327881%, 51.777649%, 62.89978%)" offset="0.046875"/><stop stop-opacity="1" stop-color="rgb(17.204285%, 51.516724%, 62.748718%)" offset="0.0507812"/><stop stop-opacity="1" stop-color="rgb(17.082214%, 51.257324%, 62.599182%)" offset="0.0546875"/><stop stop-opacity="1" stop-color="rgb(16.958618%, 50.996399%, 62.44812%)" offset="0.0585938"/><stop stop-opacity="1" stop-color="rgb(16.836548%, 50.737%, 62.298584%)" offset="0.0625"/><stop stop-opacity="1" stop-color="rgb(16.712952%, 50.476074%, 62.149048%)" offset="0.0664062"/><stop stop-opacity="1" stop-color="rgb(16.590881%, 50.216675%, 61.999512%)" offset="0.0703125"/><stop stop-opacity="1" stop-color="rgb(16.468811%, 49.95575%, 61.84845%)" offset="0.0742188"/><stop stop-opacity="1" stop-color="rgb(16.346741%, 49.69635%, 61.698914%)" offset="0.078125"/><stop stop-opacity="1" stop-color="rgb(16.223145%, 49.435425%, 61.549377%)" offset="0.0820312"/><stop stop-opacity="1" stop-color="rgb(16.101074%, 49.176025%, 61.399841%)" offset="0.0859375"/><stop stop-opacity="1" stop-color="rgb(15.977478%, 48.9151%, 61.248779%)" offset="0.0898438"/><stop stop-opacity="1" stop-color="rgb(15.855408%, 48.655701%, 61.099243%)" offset="0.09375"/><stop stop-opacity="1" stop-color="rgb(15.731812%, 48.394775%, 60.948181%)" offset="0.0976562"/><stop stop-opacity="1" stop-color="rgb(15.609741%, 48.135376%, 60.798645%)" offset="0.101562"/><stop stop-opacity="1" stop-color="rgb(15.487671%, 47.874451%, 60.649109%)" offset="0.105469"/><stop stop-opacity="1" stop-color="rgb(15.365601%, 47.615051%, 60.499573%)" offset="0.109375"/><stop stop-opacity="1" stop-color="rgb(15.242004%, 47.354126%, 60.348511%)" offset="0.113281"/><stop stop-opacity="1" stop-color="rgb(15.119934%, 47.094727%, 60.198975%)" offset="0.117188"/><stop stop-opacity="1" stop-color="rgb(14.996338%, 46.833801%, 60.049438%)" offset="0.121094"/><stop stop-opacity="1" stop-color="rgb(14.874268%, 46.574402%, 59.899902%)" offset="0.125"/><stop stop-opacity="1" stop-color="rgb(14.750671%, 46.313477%, 59.74884%)" offset="0.128906"/><stop stop-opacity="1" stop-color="rgb(14.628601%, 46.054077%, 59.599304%)" offset="0.132812"/><stop stop-opacity="1" stop-color="rgb(14.505005%, 45.793152%, 59.448242%)" offset="0.136719"/><stop stop-opacity="1" stop-color="rgb(14.382935%, 45.533752%, 59.298706%)" offset="0.140625"/><stop stop-opacity="1" stop-color="rgb(14.260864%, 45.272827%, 59.14917%)" offset="0.144531"/><stop stop-opacity="1" stop-color="rgb(14.138794%, 45.013428%, 58.999634%)" offset="0.148438"/><stop stop-opacity="1" stop-color="rgb(14.015198%, 44.752502%, 58.848572%)" offset="0.152344"/><stop stop-opacity="1" stop-color="rgb(13.893127%, 44.493103%, 58.699036%)" offset="0.15625"/><stop stop-opacity="1" stop-color="rgb(13.769531%, 44.232178%, 58.5495%)" offset="0.160156"/><stop stop-opacity="1" stop-color="rgb(13.647461%, 43.972778%, 58.399963%)" offset="0.164062"/><stop stop-opacity="1" stop-color="rgb(13.523865%, 43.711853%, 58.248901%)" offset="0.167969"/><stop stop-opacity="1" stop-color="rgb(13.401794%, 43.452454%, 58.099365%)" offset="0.171875"/><stop stop-opacity="1" stop-color="rgb(13.279724%, 43.191528%, 57.948303%)" offset="0.175781"/><stop stop-opacity="1" stop-color="rgb(13.157654%, 42.932129%, 57.798767%)" offset="0.179688"/><stop stop-opacity="1" stop-color="rgb(13.034058%, 42.671204%, 57.649231%)" offset="0.183594"/><stop stop-opacity="1" stop-color="rgb(12.911987%, 42.411804%, 57.499695%)" offset="0.1875"/><stop stop-opacity="1" stop-color="rgb(12.788391%, 42.150879%, 57.348633%)" offset="0.191406"/><stop stop-opacity="1" stop-color="rgb(12.666321%, 41.891479%, 57.199097%)" offset="0.195312"/><stop stop-opacity="1" stop-color="rgb(12.542725%, 41.630554%, 57.048035%)" offset="0.199219"/><stop stop-opacity="1" stop-color="rgb(12.420654%, 41.371155%, 56.898499%)" offset="0.203125"/><stop stop-opacity="1" stop-color="rgb(12.298584%, 41.110229%, 56.748962%)" offset="0.207031"/><stop stop-opacity="1" stop-color="rgb(12.176514%, 40.85083%, 56.599426%)" offset="0.210938"/><stop stop-opacity="1" stop-color="rgb(12.052917%, 40.589905%, 56.448364%)" offset="0.214844"/><stop stop-opacity="1" stop-color="rgb(11.930847%, 40.330505%, 56.298828%)" offset="0.21875"/><stop stop-opacity="1" stop-color="rgb(11.807251%, 40.06958%, 56.149292%)" offset="0.222656"/><stop stop-opacity="1" stop-color="rgb(11.685181%, 39.810181%, 55.999756%)" offset="0.226562"/><stop stop-opacity="1" stop-color="rgb(11.561584%, 39.549255%, 55.848694%)" offset="0.230469"/><stop stop-opacity="1" stop-color="rgb(11.439514%, 39.289856%, 55.699158%)" offset="0.234375"/><stop stop-opacity="1" stop-color="rgb(11.315918%, 39.028931%, 55.548096%)" offset="0.238281"/><stop stop-opacity="1" stop-color="rgb(11.193848%, 38.769531%, 55.39856%)" offset="0.242188"/><stop stop-opacity="1" stop-color="rgb(11.071777%, 38.508606%, 55.249023%)" offset="0.246094"/><stop stop-opacity="1" stop-color="rgb(10.949707%, 38.249207%, 55.099487%)" offset="0.25"/><stop stop-opacity="1" stop-color="rgb(10.826111%, 37.988281%, 54.948425%)" offset="0.253906"/><stop stop-opacity="1" stop-color="rgb(10.704041%, 37.728882%, 54.798889%)" offset="0.257812"/><stop stop-opacity="1" stop-color="rgb(10.580444%, 37.467957%, 54.649353%)" offset="0.261719"/><stop stop-opacity="1" stop-color="rgb(10.458374%, 37.208557%, 54.499817%)" offset="0.265625"/><stop stop-opacity="1" stop-color="rgb(10.334778%, 36.947632%, 54.348755%)" offset="0.269531"/><stop stop-opacity="1" stop-color="rgb(10.212708%, 36.688232%, 54.199219%)" offset="0.273438"/><stop stop-opacity="1" stop-color="rgb(10.090637%, 36.427307%, 54.048157%)" offset="0.277344"/><stop stop-opacity="1" stop-color="rgb(9.968567%, 36.167908%, 53.898621%)" offset="0.28125"/><stop stop-opacity="1" stop-color="rgb(9.844971%, 35.906982%, 53.749084%)" offset="0.285156"/><stop stop-opacity="1" stop-color="rgb(9.7229%, 35.647583%, 53.599548%)" offset="0.289062"/><stop stop-opacity="1" stop-color="rgb(9.599304%, 35.386658%, 53.448486%)" offset="0.292969"/><stop stop-opacity="1" stop-color="rgb(9.477234%, 35.127258%, 53.29895%)" offset="0.296875"/><stop stop-opacity="1" stop-color="rgb(9.353638%, 34.866333%, 53.149414%)" offset="0.300781"/><stop stop-opacity="1" stop-color="rgb(9.231567%, 34.606934%, 52.999878%)" offset="0.304688"/><stop stop-opacity="1" stop-color="rgb(9.109497%, 34.346008%, 52.848816%)" offset="0.308594"/><stop stop-opacity="1" stop-color="rgb(8.987427%, 34.086609%, 52.69928%)" offset="0.3125"/><stop stop-opacity="1" stop-color="rgb(8.863831%, 33.825684%, 52.548218%)" offset="0.316406"/><stop stop-opacity="1" stop-color="rgb(8.74176%, 33.566284%, 52.398682%)" offset="0.320312"/><stop stop-opacity="1" stop-color="rgb(8.618164%, 33.305359%, 52.249146%)" offset="0.324219"/><stop stop-opacity="1" stop-color="rgb(8.496094%, 33.045959%, 52.099609%)" offset="0.328125"/><stop stop-opacity="1" stop-color="rgb(8.372498%, 32.785034%, 51.948547%)" offset="0.332031"/><stop stop-opacity="1" stop-color="rgb(8.250427%, 32.525635%, 51.799011%)" offset="0.335938"/><stop stop-opacity="1" stop-color="rgb(8.126831%, 32.264709%, 51.649475%)" offset="0.339844"/><stop stop-opacity="1" stop-color="rgb(8.004761%, 32.00531%, 51.499939%)" offset="0.34375"/><stop stop-opacity="1" stop-color="rgb(7.88269%, 31.744385%, 51.348877%)" offset="0.347656"/><stop stop-opacity="1" stop-color="rgb(7.76062%, 31.484985%, 51.199341%)" offset="0.351562"/><stop stop-opacity="1" stop-color="rgb(7.637024%, 31.22406%, 51.048279%)" offset="0.355469"/><stop stop-opacity="1" stop-color="rgb(7.514954%, 30.964661%, 50.898743%)" offset="0.359375"/><stop stop-opacity="1" stop-color="rgb(7.391357%, 30.703735%, 50.749207%)" offset="0.363281"/><stop stop-opacity="1" stop-color="rgb(7.269287%, 30.444336%, 50.59967%)" offset="0.367188"/><stop stop-opacity="1" stop-color="rgb(7.145691%, 30.183411%, 50.448608%)" offset="0.371094"/><stop stop-opacity="1" stop-color="rgb(7.023621%, 29.924011%, 50.299072%)" offset="0.375"/><stop stop-opacity="1" stop-color="rgb(6.90155%, 29.663086%, 50.149536%)" offset="0.378906"/><stop stop-opacity="1" stop-color="rgb(6.77948%, 29.403687%, 50%)" offset="0.382812"/><stop stop-opacity="1" stop-color="rgb(6.655884%, 29.142761%, 49.848938%)" offset="0.386719"/><stop stop-opacity="1" stop-color="rgb(6.533813%, 28.883362%, 49.699402%)" offset="0.390625"/><stop stop-opacity="1" stop-color="rgb(6.410217%, 28.622437%, 49.54834%)" offset="0.394531"/><stop stop-opacity="1" stop-color="rgb(6.288147%, 28.363037%, 49.398804%)" offset="0.398438"/><stop stop-opacity="1" stop-color="rgb(6.164551%, 28.102112%, 49.249268%)" offset="0.402344"/><stop stop-opacity="1" stop-color="rgb(6.04248%, 27.842712%, 49.099731%)" offset="0.40625"/><stop stop-opacity="1" stop-color="rgb(5.92041%, 27.581787%, 48.948669%)" offset="0.410156"/><stop stop-opacity="1" stop-color="rgb(5.79834%, 27.322388%, 48.799133%)" offset="0.414062"/><stop stop-opacity="1" stop-color="rgb(5.674744%, 27.061462%, 48.648071%)" offset="0.417969"/><stop stop-opacity="1" stop-color="rgb(5.552673%, 26.802063%, 48.498535%)" offset="0.421875"/><stop stop-opacity="1" stop-color="rgb(5.429077%, 26.541138%, 48.348999%)" offset="0.425781"/><stop stop-opacity="1" stop-color="rgb(5.307007%, 26.281738%, 48.199463%)" offset="0.429688"/><stop stop-opacity="1" stop-color="rgb(5.183411%, 26.020813%, 48.048401%)" offset="0.433594"/><stop stop-opacity="1" stop-color="rgb(5.06134%, 25.761414%, 47.898865%)" offset="0.4375"/><stop stop-opacity="1" stop-color="rgb(4.937744%, 25.500488%, 47.749329%)" offset="0.441406"/><stop stop-opacity="1" stop-color="rgb(4.815674%, 25.241089%, 47.599792%)" offset="0.445312"/><stop stop-opacity="1" stop-color="rgb(4.693604%, 24.980164%, 47.44873%)" offset="0.449219"/><stop stop-opacity="1" stop-color="rgb(4.571533%, 24.720764%, 47.299194%)" offset="0.453125"/><stop stop-opacity="1" stop-color="rgb(4.447937%, 24.459839%, 47.148132%)" offset="0.457031"/><stop stop-opacity="1" stop-color="rgb(4.325867%, 24.200439%, 46.998596%)" offset="0.460938"/><stop stop-opacity="1" stop-color="rgb(4.202271%, 23.939514%, 46.84906%)" offset="0.464844"/><stop stop-opacity="1" stop-color="rgb(4.0802%, 23.680115%, 46.699524%)" offset="0.46875"/><stop stop-opacity="1" stop-color="rgb(3.956604%, 23.419189%, 46.548462%)" offset="0.472656"/><stop stop-opacity="1" stop-color="rgb(3.834534%, 23.15979%, 46.398926%)" offset="0.476562"/><stop stop-opacity="1" stop-color="rgb(3.712463%, 22.898865%, 46.24939%)" offset="0.480469"/><stop stop-opacity="1" stop-color="rgb(3.590393%, 22.639465%, 46.099854%)" offset="0.484375"/><stop stop-opacity="1" stop-color="rgb(3.466797%, 22.37854%, 45.948792%)" offset="0.488281"/><stop stop-opacity="1" stop-color="rgb(3.344727%, 22.119141%, 45.799255%)" offset="0.492188"/><stop stop-opacity="1" stop-color="rgb(3.22113%, 21.858215%, 45.648193%)" offset="0.496094"/><stop stop-opacity="1" stop-color="rgb(3.09906%, 21.598816%, 45.498657%)" offset="0.5"/><stop stop-opacity="1" stop-color="rgb(3.175354%, 21.922302%, 45.611572%)" offset="0.503906"/><stop stop-opacity="1" stop-color="rgb(3.251648%, 22.247314%, 45.726013%)" offset="0.507812"/><stop stop-opacity="1" stop-color="rgb(3.327942%, 22.570801%, 45.838928%)" offset="0.511719"/><stop stop-opacity="1" stop-color="rgb(3.405762%, 22.895813%, 45.951843%)" offset="0.515625"/><stop stop-opacity="1" stop-color="rgb(3.482056%, 23.219299%, 46.064758%)" offset="0.519531"/><stop stop-opacity="1" stop-color="rgb(3.55835%, 23.544312%, 46.179199%)" offset="0.523438"/><stop stop-opacity="1" stop-color="rgb(3.634644%, 23.867798%, 46.292114%)" offset="0.527344"/><stop stop-opacity="1" stop-color="rgb(3.712463%, 24.19281%, 46.405029%)" offset="0.53125"/><stop stop-opacity="1" stop-color="rgb(3.788757%, 24.516296%, 46.517944%)" offset="0.535156"/><stop stop-opacity="1" stop-color="rgb(3.865051%, 24.841309%, 46.632385%)" offset="0.539062"/><stop stop-opacity="1" stop-color="rgb(3.941345%, 25.164795%, 46.7453%)" offset="0.542969"/><stop stop-opacity="1" stop-color="rgb(4.017639%, 25.489807%, 46.858215%)" offset="0.546875"/><stop stop-opacity="1" stop-color="rgb(4.093933%, 25.813293%, 46.97113%)" offset="0.550781"/><stop stop-opacity="1" stop-color="rgb(4.171753%, 26.138306%, 47.085571%)" offset="0.554688"/><stop stop-opacity="1" stop-color="rgb(4.248047%, 26.461792%, 47.198486%)" offset="0.558594"/><stop stop-opacity="1" stop-color="rgb(4.324341%, 26.786804%, 47.311401%)" offset="0.5625"/><stop stop-opacity="1" stop-color="rgb(4.400635%, 27.110291%, 47.424316%)" offset="0.566406"/><stop stop-opacity="1" stop-color="rgb(4.476929%, 27.435303%, 47.538757%)" offset="0.570312"/><stop stop-opacity="1" stop-color="rgb(4.553223%, 27.758789%, 47.651672%)" offset="0.574219"/><stop stop-opacity="1" stop-color="rgb(4.631042%, 28.083801%, 47.764587%)" offset="0.578125"/><stop stop-opacity="1" stop-color="rgb(4.707336%, 28.407288%, 47.877502%)" offset="0.582031"/><stop stop-opacity="1" stop-color="rgb(4.78363%, 28.7323%, 47.991943%)" offset="0.585938"/><stop stop-opacity="1" stop-color="rgb(4.859924%, 29.055786%, 48.104858%)" offset="0.589844"/><stop stop-opacity="1" stop-color="rgb(4.936218%, 29.380798%, 48.217773%)" offset="0.59375"/><stop stop-opacity="1" stop-color="rgb(5.012512%, 29.704285%, 48.330688%)" offset="0.597656"/><stop stop-opacity="1" stop-color="rgb(5.090332%, 30.029297%, 48.445129%)" offset="0.601562"/><stop stop-opacity="1" stop-color="rgb(5.166626%, 30.352783%, 48.558044%)" offset="0.605469"/><stop stop-opacity="1" stop-color="rgb(5.24292%, 30.677795%, 48.670959%)" offset="0.609375"/><stop stop-opacity="1" stop-color="rgb(5.319214%, 31.001282%, 48.783875%)" offset="0.613281"/><stop stop-opacity="1" stop-color="rgb(5.395508%, 31.326294%, 48.898315%)" offset="0.617188"/><stop stop-opacity="1" stop-color="rgb(5.471802%, 31.64978%, 49.01123%)" offset="0.621094"/><stop stop-opacity="1" stop-color="rgb(5.549622%, 31.974792%, 49.124146%)" offset="0.625"/><stop stop-opacity="1" stop-color="rgb(5.625916%, 32.298279%, 49.237061%)" offset="0.628906"/><stop stop-opacity="1" stop-color="rgb(5.702209%, 32.623291%, 49.351501%)" offset="0.632812"/><stop stop-opacity="1" stop-color="rgb(5.778503%, 32.946777%, 49.464417%)" offset="0.636719"/><stop stop-opacity="1" stop-color="rgb(5.854797%, 33.27179%, 49.577332%)" offset="0.640625"/><stop stop-opacity="1" stop-color="rgb(5.931091%, 33.595276%, 49.690247%)" offset="0.644531"/><stop stop-opacity="1" stop-color="rgb(6.008911%, 33.920288%, 49.803162%)" offset="0.648438"/><stop stop-opacity="1" stop-color="rgb(6.085205%, 34.243774%, 49.916077%)" offset="0.652344"/><stop stop-opacity="1" stop-color="rgb(6.161499%, 34.567261%, 50.030518%)" offset="0.65625"/><stop stop-opacity="1" stop-color="rgb(6.237793%, 34.890747%, 50.143433%)" offset="0.660156"/><stop stop-opacity="1" stop-color="rgb(6.315613%, 35.215759%, 50.256348%)" offset="0.664062"/><stop stop-opacity="1" stop-color="rgb(6.391907%, 35.539246%, 50.369263%)" offset="0.667969"/><stop stop-opacity="1" stop-color="rgb(6.468201%, 35.864258%, 50.483704%)" offset="0.671875"/><stop stop-opacity="1" stop-color="rgb(6.544495%, 36.187744%, 50.596619%)" offset="0.675781"/><stop stop-opacity="1" stop-color="rgb(6.620789%, 36.512756%, 50.709534%)" offset="0.679688"/><stop stop-opacity="1" stop-color="rgb(6.697083%, 36.836243%, 50.822449%)" offset="0.683594"/><stop stop-opacity="1" stop-color="rgb(6.774902%, 37.161255%, 50.93689%)" offset="0.6875"/><stop stop-opacity="1" stop-color="rgb(6.851196%, 37.484741%, 51.049805%)" offset="0.691406"/><stop stop-opacity="1" stop-color="rgb(6.92749%, 37.809753%, 51.16272%)" offset="0.695312"/><stop stop-opacity="1" stop-color="rgb(7.003784%, 38.13324%, 51.275635%)" offset="0.699219"/><stop stop-opacity="1" stop-color="rgb(7.080078%, 38.458252%, 51.390076%)" offset="0.703125"/><stop stop-opacity="1" stop-color="rgb(7.156372%, 38.781738%, 51.502991%)" offset="0.707031"/><stop stop-opacity="1" stop-color="rgb(7.234192%, 39.10675%, 51.615906%)" offset="0.710938"/><stop stop-opacity="1" stop-color="rgb(7.310486%, 39.430237%, 51.728821%)" offset="0.714844"/><stop stop-opacity="1" stop-color="rgb(7.38678%, 39.755249%, 51.843262%)" offset="0.71875"/><stop stop-opacity="1" stop-color="rgb(7.463074%, 40.078735%, 51.956177%)" offset="0.722656"/><stop stop-opacity="1" stop-color="rgb(7.539368%, 40.403748%, 52.069092%)" offset="0.726562"/><stop stop-opacity="1" stop-color="rgb(7.615662%, 40.727234%, 52.182007%)" offset="0.730469"/><stop stop-opacity="1" stop-color="rgb(7.693481%, 41.052246%, 52.296448%)" offset="0.734375"/><stop stop-opacity="1" stop-color="rgb(7.769775%, 41.375732%, 52.409363%)" offset="0.738281"/><stop stop-opacity="1" stop-color="rgb(7.846069%, 41.700745%, 52.522278%)" offset="0.742188"/><stop stop-opacity="1" stop-color="rgb(7.922363%, 42.024231%, 52.635193%)" offset="0.746094"/><stop stop-opacity="1" stop-color="rgb(7.998657%, 42.349243%, 52.749634%)" offset="0.75"/><stop stop-opacity="1" stop-color="rgb(8.074951%, 42.672729%, 52.862549%)" offset="0.753906"/><stop stop-opacity="1" stop-color="rgb(8.152771%, 42.997742%, 52.975464%)" offset="0.757812"/><stop stop-opacity="1" stop-color="rgb(8.229065%, 43.321228%, 53.088379%)" offset="0.761719"/><stop stop-opacity="1" stop-color="rgb(8.305359%, 43.64624%, 53.20282%)" offset="0.765625"/><stop stop-opacity="1" stop-color="rgb(8.381653%, 43.969727%, 53.315735%)" offset="0.769531"/><stop stop-opacity="1" stop-color="rgb(8.457947%, 44.294739%, 53.42865%)" offset="0.773438"/><stop stop-opacity="1" stop-color="rgb(8.534241%, 44.618225%, 53.541565%)" offset="0.777344"/><stop stop-opacity="1" stop-color="rgb(8.612061%, 44.943237%, 53.656006%)" offset="0.78125"/><stop stop-opacity="1" stop-color="rgb(8.688354%, 45.266724%, 53.768921%)" offset="0.785156"/><stop stop-opacity="1" stop-color="rgb(8.764648%, 45.591736%, 53.881836%)" offset="0.789062"/><stop stop-opacity="1" stop-color="rgb(8.840942%, 45.915222%, 53.994751%)" offset="0.792969"/><stop stop-opacity="1" stop-color="rgb(8.917236%, 46.240234%, 54.109192%)" offset="0.796875"/><stop stop-opacity="1" stop-color="rgb(8.99353%, 46.563721%, 54.222107%)" offset="0.800781"/><stop stop-opacity="1" stop-color="rgb(9.07135%, 46.888733%, 54.335022%)" offset="0.804688"/><stop stop-opacity="1" stop-color="rgb(9.147644%, 47.212219%, 54.447937%)" offset="0.808594"/><stop stop-opacity="1" stop-color="rgb(9.223938%, 47.537231%, 54.562378%)" offset="0.8125"/><stop stop-opacity="1" stop-color="rgb(9.300232%, 47.860718%, 54.675293%)" offset="0.816406"/><stop stop-opacity="1" stop-color="rgb(9.378052%, 48.18573%, 54.788208%)" offset="0.820312"/><stop stop-opacity="1" stop-color="rgb(9.454346%, 48.509216%, 54.901123%)" offset="0.824219"/><stop stop-opacity="1" stop-color="rgb(9.53064%, 48.834229%, 55.015564%)" offset="0.828125"/><stop stop-opacity="1" stop-color="rgb(9.606934%, 49.157715%, 55.128479%)" offset="0.832031"/><stop stop-opacity="1" stop-color="rgb(9.683228%, 49.482727%, 55.241394%)" offset="0.835938"/><stop stop-opacity="1" stop-color="rgb(9.759521%, 49.806213%, 55.354309%)" offset="0.839844"/><stop stop-opacity="1" stop-color="rgb(9.837341%, 50.131226%, 55.467224%)" offset="0.84375"/><stop stop-opacity="1" stop-color="rgb(9.913635%, 50.454712%, 55.580139%)" offset="0.847656"/><stop stop-opacity="1" stop-color="rgb(9.989929%, 50.778198%, 55.69458%)" offset="0.851562"/><stop stop-opacity="1" stop-color="rgb(10.066223%, 51.101685%, 55.807495%)" offset="0.855469"/><stop stop-opacity="1" stop-color="rgb(10.142517%, 51.426697%, 55.92041%)" offset="0.859375"/><stop stop-opacity="1" stop-color="rgb(10.218811%, 51.750183%, 56.033325%)" offset="0.863281"/><stop stop-opacity="1" stop-color="rgb(10.296631%, 52.075195%, 56.147766%)" offset="0.867188"/><stop stop-opacity="1" stop-color="rgb(10.372925%, 52.398682%, 56.260681%)" offset="0.871094"/><stop stop-opacity="1" stop-color="rgb(10.449219%, 52.723694%, 56.373596%)" offset="0.875"/><stop stop-opacity="1" stop-color="rgb(10.525513%, 53.04718%, 56.486511%)" offset="0.878906"/><stop stop-opacity="1" stop-color="rgb(10.601807%, 53.372192%, 56.600952%)" offset="0.882812"/><stop stop-opacity="1" stop-color="rgb(10.678101%, 53.695679%, 56.713867%)" offset="0.886719"/><stop stop-opacity="1" stop-color="rgb(10.75592%, 54.020691%, 56.826782%)" offset="0.890625"/><stop stop-opacity="1" stop-color="rgb(10.832214%, 54.344177%, 56.939697%)" offset="0.894531"/><stop stop-opacity="1" stop-color="rgb(10.908508%, 54.669189%, 57.054138%)" offset="0.898438"/><stop stop-opacity="1" stop-color="rgb(10.984802%, 54.992676%, 57.167053%)" offset="0.902344"/><stop stop-opacity="1" stop-color="rgb(11.061096%, 55.317688%, 57.279968%)" offset="0.90625"/><stop stop-opacity="1" stop-color="rgb(11.13739%, 55.641174%, 57.392883%)" offset="0.910156"/><stop stop-opacity="1" stop-color="rgb(11.21521%, 55.966187%, 57.507324%)" offset="0.914062"/><stop stop-opacity="1" stop-color="rgb(11.291504%, 56.289673%, 57.620239%)" offset="0.917969"/><stop stop-opacity="1" stop-color="rgb(11.367798%, 56.614685%, 57.733154%)" offset="0.921875"/><stop stop-opacity="1" stop-color="rgb(11.444092%, 56.938171%, 57.846069%)" offset="0.925781"/><stop stop-opacity="1" stop-color="rgb(11.520386%, 57.263184%, 57.96051%)" offset="0.929688"/><stop stop-opacity="1" stop-color="rgb(11.59668%, 57.58667%, 58.073425%)" offset="0.933594"/><stop stop-opacity="1" stop-color="rgb(11.6745%, 57.911682%, 58.18634%)" offset="0.9375"/><stop stop-opacity="1" stop-color="rgb(11.750793%, 58.235168%, 58.299255%)" offset="0.941406"/><stop stop-opacity="1" stop-color="rgb(11.827087%, 58.560181%, 58.413696%)" offset="0.945312"/><stop stop-opacity="1" stop-color="rgb(11.903381%, 58.883667%, 58.526611%)" offset="0.949219"/><stop stop-opacity="1" stop-color="rgb(11.981201%, 59.208679%, 58.639526%)" offset="0.953125"/><stop stop-opacity="1" stop-color="rgb(12.057495%, 59.532166%, 58.752441%)" offset="0.957031"/><stop stop-opacity="1" stop-color="rgb(12.133789%, 59.857178%, 58.866882%)" offset="0.960938"/><stop stop-opacity="1" stop-color="rgb(12.210083%, 60.180664%, 58.979797%)" offset="0.964844"/><stop stop-opacity="1" stop-color="rgb(12.286377%, 60.505676%, 59.092712%)" offset="0.96875"/><stop stop-opacity="1" stop-color="rgb(12.362671%, 60.829163%, 59.205627%)" offset="0.972656"/><stop stop-opacity="1" stop-color="rgb(12.440491%, 61.154175%, 59.320068%)" offset="0.976562"/><stop stop-opacity="1" stop-color="rgb(12.516785%, 61.477661%, 59.432983%)" offset="0.980469"/><stop stop-opacity="1" stop-color="rgb(12.593079%, 61.802673%, 59.545898%)" offset="0.984375"/><stop stop-opacity="1" stop-color="rgb(12.669373%, 62.12616%, 59.658813%)" offset="0.988281"/><stop stop-opacity="1" stop-color="rgb(12.745667%, 62.451172%, 59.773254%)" offset="0.992188"/><stop stop-opacity="1" stop-color="rgb(12.82196%, 62.774658%, 59.886169%)" offset="0.996094"/><stop stop-opacity="1" stop-color="rgb(12.89978%, 63.09967%, 59.999084%)" offset="1"/></linearGradient><clipPath id="9834683bda"><path d="M 0.285156 0 L 116 0 L 116 206 L 0.285156 206 Z M 0.285156 0 " clip-rule="nonzero"/></clipPath><mask id="b401b33047"><g filter="url(#3df748c2b6)"><rect x="-30" width="360" fill="#000000" y="-52.500001" height="630.000008" fill-opacity="0.3"/></g></mask><clipPath id="92a1e980b7"><path d="M 0.285156 116 L 72 116 L 72 205 L 0.285156 205 Z M 0.285156 116 " clip-rule="nonzero"/></clipPath><clipPath id="175d25cd28"><path d="M 0.285156 0 L 76 0 L 76 44 L 0.285156 44 Z M 0.285156 0 " clip-rule="nonzero"/></clipPath><clipPath id="1434f06c20"><path d="M 0.285156 0 L 114.632812 0 L 114.632812 118 L 0.285156 118 Z M 0.285156 0 " clip-rule="nonzero"/></clipPath><clipPath id="ae2156cdf1"><rect x="0" width="116" y="0" height="206"/></clipPath><clipPath id="ae1369dd77"><path d="M 109 69 L 299.714844 69 L 299.714844 524 L 109 524 Z M 109 69 " clip-rule="nonzero"/></clipPath><mask id="07547aeec6"><g filter="url(#3df748c2b6)"><rect x="-30" width="360" fill="#000000" y="-52.500001" height="630.000008" fill-opacity="0.25"/></g></mask><clipPath id="72268e78b4"><path d="M 110 2.25 L 190.714844 2.25 L 190.714844 141 L 110 141 Z M 110 2.25 " clip-rule="nonzero"/></clipPath><clipPath id="9a50201802"><path d="M 11 370 L 190.714844 370 L 190.714844 455 L 11 455 Z M 11 370 " clip-rule="nonzero"/></clipPath><clipPath id="3447e08860"><path d="M 0.515625 97 L 190.714844 97 L 190.714844 251 L 0.515625 251 Z M 0.515625 97 " clip-rule="nonzero"/></clipPath><clipPath id="2540e8266d"><path d="M 72 176 L 190.714844 176 L 190.714844 373 L 72 373 Z M 72 176 " clip-rule="nonzero"/></clipPath><clipPath id="65d137a030"><rect x="0" width="191" y="0" height="455"/></clipPath><clipPath id="03d480c325"><path d="M 0.285156 480.71875 L 105.6875 480.71875 L 105.6875 508.324219 L 0.285156 508.324219 Z M 0.285156 480.71875 " clip-rule="nonzero"/></clipPath><clipPath id="d4a2c616e2"><path d="M 161 15.667969 L 299.714844 15.667969 L 299.714844 43.273438 L 161 43.273438 Z M 161 15.667969 " clip-rule="nonzero"/></clipPath></defs><g clip-path="url(#c7f37686d6)"><path fill="#ffffff" d="M 0.285156 0 L 299.714844 0 L 299.714844 524 L 0.285156 524 Z M 0.285156 0 " fill-opacity="1" fill-rule="nonzero"/><path fill="url(#0fbb61c7e8)" d="M 0.285156 0 L 0.285156 524 L 299.714844 524 L 299.714844 0 Z M 0.285156 0 " fill-rule="nonzero"/></g><g clip-path="url(#9834683bda)"><g mask="url(#b401b33047)"><g transform="matrix(1, 0, 0, 1, 0.000000000000000056, 0.000000000000109615)"><g clip-path="url(#ae2156cdf1)"><g clip-path="url(#92a1e980b7)"><path fill="#ffffff" d="M 71.230469 163.558594 C 71.226562 163.53125 71.214844 163.507812 71.203125 163.484375 C 71.183594 163.445312 71.160156 163.410156 71.128906 163.382812 L 27.523438 119.824219 C 27.519531 119.820312 27.511719 119.8125 27.507812 119.808594 C 27.449219 119.753906 27.375 119.722656 27.296875 119.714844 L -6.160156 116.089844 C -6.183594 116.085938 -6.210938 116.085938 -6.234375 116.089844 C -6.265625 116.089844 -6.296875 116.097656 -6.324219 116.105469 C -6.324219 116.105469 -6.328125 116.105469 -6.328125 116.105469 C -6.378906 116.125 -6.429688 116.15625 -6.46875 116.199219 C -6.46875 116.199219 -6.46875 116.199219 -6.472656 116.199219 C -6.480469 116.207031 -6.488281 116.21875 -6.5 116.230469 L -14.238281 126.128906 L -43.707031 141.296875 C -43.714844 141.300781 -43.726562 141.304688 -43.734375 141.3125 C -43.796875 141.351562 -43.84375 141.402344 -43.875 141.464844 C -43.886719 141.488281 -43.894531 141.515625 -43.898438 141.542969 C -43.917969 141.617188 -43.914062 141.695312 -43.882812 141.773438 C -43.878906 141.777344 -43.875 141.785156 -43.871094 141.789062 L -20.804688 189.195312 C -20.804688 189.199219 -20.804688 189.199219 -20.804688 189.199219 C -20.796875 189.207031 -20.800781 189.203125 -20.800781 189.203125 C -20.765625 189.277344 -20.703125 189.335938 -20.621094 189.371094 C -20.617188 189.375 -20.609375 189.378906 -20.601562 189.378906 L 19.414062 204.828125 C 19.421875 204.828125 19.425781 204.832031 19.429688 204.832031 C 19.433594 204.832031 19.433594 204.832031 19.433594 204.832031 C 19.433594 204.835938 19.433594 204.832031 19.4375 204.832031 C 19.4375 204.832031 19.4375 204.832031 19.4375 204.835938 C 19.472656 204.84375 19.507812 204.851562 19.546875 204.851562 C 19.585938 204.851562 19.625 204.84375 19.660156 204.832031 C 19.6875 204.824219 19.710938 204.8125 19.734375 204.800781 L 42.644531 191.707031 C 42.652344 191.703125 42.660156 191.699219 42.667969 191.691406 C 42.667969 191.691406 42.667969 191.691406 42.671875 191.691406 C 42.679688 191.683594 42.691406 191.675781 42.699219 191.671875 C 42.699219 191.667969 42.699219 191.667969 42.699219 191.667969 C 42.703125 191.667969 42.703125 191.667969 42.703125 191.667969 C 42.734375 191.640625 42.761719 191.605469 42.78125 191.570312 C 42.78125 191.570312 42.78125 191.570312 42.785156 191.566406 C 42.792969 191.550781 42.800781 191.535156 42.804688 191.519531 L 50.835938 170.910156 L 70.992188 164.003906 C 70.996094 164 71 164 71.003906 163.996094 C 71.085938 163.964844 71.152344 163.910156 71.191406 163.835938 C 71.207031 163.804688 71.222656 163.773438 71.230469 163.742188 C 71.238281 163.710938 71.242188 163.683594 71.242188 163.652344 C 71.242188 163.621094 71.238281 163.589844 71.230469 163.558594 Z M 69.339844 162.640625 L 34.679688 148.796875 L 27.933594 121.277344 Z M 33.890625 148.679688 L 17.101562 147.875 L 27.183594 121.324219 Z M 33.714844 149.410156 L 16.578125 176.363281 L 16.941406 148.609375 Z M 26.746094 120.398438 L 16.476562 147.449219 L -5.421875 116.914062 Z M 4.132812 157.300781 L -2.769531 162.59375 L -8.40625 135.363281 Z M -8.234375 134.171875 L 15.914062 148.261719 L 4.722656 156.847656 Z M 4.503906 157.949219 L 14.984375 176.289062 L -2.402344 163.246094 Z M 5.09375 157.496094 L 16.195312 148.980469 L 15.839844 176.296875 Z M -5.996094 117.382812 L 15.265625 147.03125 L -8.828125 132.96875 Z M -6.835938 117.863281 L -9.445312 132.226562 L -13.535156 126.429688 Z M -14.113281 126.894531 L -9.851562 132.929688 L -40.566406 140.511719 Z M -9.523438 133.609375 L -3.53125 162.550781 L -42.515625 141.753906 Z M -42.710938 142.488281 L -3.542969 163.378906 L -20.421875 188.296875 Z M -19.90625 188.855469 L -3.042969 163.957031 L 18.738281 203.773438 Z M -1.867188 164.570312 L 15.84375 177.859375 L 18.941406 202.597656 Z M 19.84375 203.882812 L 16.648438 178.3125 L 41.695312 191.398438 Z M 16.71875 177.515625 L 34.179688 150.054688 L 41.957031 190.703125 Z M 42.585938 190.054688 L 35.03125 150.566406 L 50.136719 170.675781 Z M 50.691406 170.179688 L 35.457031 149.902344 L 69.8125 163.625 Z M 50.691406 170.179688 " fill-opacity="1" fill-rule="nonzero"/></g><g clip-path="url(#175d25cd28)"><path fill="#5efaf7" d="M 75.296875 -27.617188 C 75.289062 -27.679688 75.261719 -27.742188 75.222656 -27.792969 C 75.207031 -27.808594 75.195312 -27.820312 75.179688 -27.835938 C 75.144531 -27.867188 75.101562 -27.890625 75.058594 -27.90625 L 16.632812 -50.164062 C 16.625 -50.167969 16.613281 -50.171875 16.605469 -50.175781 C 16.546875 -50.191406 16.492188 -50.195312 16.433594 -50.183594 C 16.433594 -50.183594 16.433594 -50.183594 16.429688 -50.183594 C 16.425781 -50.183594 16.425781 -50.183594 16.425781 -50.183594 C 16.425781 -50.183594 16.425781 -50.183594 16.421875 -50.183594 C 16.421875 -50.183594 16.421875 -50.183594 16.417969 -50.183594 C 16.417969 -50.183594 16.414062 -50.183594 16.410156 -50.179688 C 16.410156 -50.179688 16.40625 -50.179688 16.40625 -50.179688 C 16.40625 -50.179688 16.40625 -50.179688 16.402344 -50.179688 C 16.402344 -50.179688 16.398438 -50.179688 16.398438 -50.179688 C 16.390625 -50.175781 16.382812 -50.175781 16.375 -50.171875 L -19.355469 -37.308594 C -19.375 -37.304688 -19.390625 -37.296875 -19.40625 -37.289062 C -19.425781 -37.277344 -19.445312 -37.265625 -19.460938 -37.253906 C -19.503906 -37.21875 -19.542969 -37.175781 -19.566406 -37.121094 C -19.574219 -37.109375 -19.578125 -37.097656 -19.582031 -37.085938 L -24.578125 -23.304688 L -50.453125 6.484375 C -50.464844 6.496094 -50.472656 6.507812 -50.480469 6.519531 C -50.519531 6.574219 -50.542969 6.640625 -50.546875 6.703125 C -50.546875 6.703125 -50.546875 6.703125 -50.546875 6.707031 C -50.546875 6.734375 -50.546875 6.761719 -50.542969 6.789062 C -50.53125 6.859375 -50.496094 6.929688 -50.445312 6.984375 C -50.441406 6.992188 -50.4375 6.996094 -50.429688 7 L -12.085938 43.246094 C -12.015625 43.308594 -11.925781 43.347656 -11.828125 43.347656 C -11.820312 43.347656 -11.8125 43.347656 -11.804688 43.347656 C -11.800781 43.347656 -11.796875 43.347656 -11.796875 43.347656 L 34.328125 39.128906 C 34.398438 39.125 34.464844 39.101562 34.523438 39.054688 C 34.523438 39.054688 34.523438 39.050781 34.527344 39.050781 C 34.550781 39.035156 34.570312 39.011719 34.585938 38.988281 L 54.296875 14.535156 C 54.3125 14.515625 54.324219 14.496094 54.335938 14.472656 C 54.335938 14.472656 54.339844 14.46875 54.339844 14.46875 C 54.359375 14.425781 54.375 14.378906 54.375 14.332031 L 56.394531 -10.371094 L 75.179688 -27.289062 C 75.246094 -27.347656 75.289062 -27.429688 75.300781 -27.511719 C 75.304688 -27.546875 75.304688 -27.582031 75.296875 -27.617188 Z M 73.269531 -27.796875 L 32.898438 -24.59375 L 17.402344 -49.082031 Z M 16.785156 -48.675781 L 32.164062 -24.375 L 14.453125 -16.863281 Z M 4.375 -1.714844 L -16.117188 -18.226562 L 13.398438 -15.960938 Z M 13.910156 -15.394531 L 21.953125 12.453125 L 4.953125 -1.25 Z M 3.976562 -1.085938 L -1.621094 7.753906 L -15.96875 -17.160156 Z M 4.554688 -0.621094 L 21.214844 12.804688 L -1.042969 8.21875 Z M 22.375 13.796875 L 33.265625 37.410156 L -0.285156 9.125 Z M 14.484375 -16.074219 L 32.152344 -23.570312 L 22.621094 12.09375 Z M 16.085938 -49.28125 L 13.714844 -16.921875 L -18.390625 -36.871094 Z M 12.558594 -16.769531 L -16.9375 -19.03125 L -18.789062 -36.246094 Z M -19.433594 -35.332031 L -17.722656 -19.410156 L -23.804688 -23.265625 Z M -24.183594 -22.628906 L -17.914062 -18.660156 L -47.457031 4.164062 Z M -17.382812 -18.136719 L -2.292969 8.074219 L -49.144531 6.402344 Z M -12.011719 42.300781 L -49.210938 7.136719 L -2.125 8.816406 Z M -11.320312 42.5625 L -1.445312 9.113281 L 33.382812 38.476562 Z M 34.382812 38.070312 L 23.21875 13.859375 L 53.25 14.65625 Z M 23.113281 13.117188 L 32.828125 -23.226562 L 53.371094 13.921875 Z M 53.738281 13.058594 L 33.683594 -23.207031 L 55.652344 -10.34375 Z M 55.992188 -11 L 33.910156 -23.929688 L 73.878906 -27.105469 Z M 55.992188 -11 " fill-opacity="1" fill-rule="nonzero"/></g><g clip-path="url(#1434f06c20)"><path fill="#ffffff" d="M 114.695312 23.027344 C 114.667969 22.972656 114.628906 22.925781 114.574219 22.890625 C 114.5625 22.882812 114.550781 22.875 114.539062 22.867188 L 67.90625 -2.019531 C 67.890625 -2.03125 67.871094 -2.039062 67.847656 -2.046875 C 67.835938 -2.050781 67.828125 -2.054688 67.816406 -2.058594 C 67.734375 -2.078125 67.648438 -2.070312 67.570312 -2.03125 C 67.5625 -2.027344 67.558594 -2.023438 67.554688 -2.023438 L 21.332031 22.816406 C 21.292969 22.835938 21.257812 22.863281 21.226562 22.898438 C 21.226562 22.898438 21.226562 22.898438 21.226562 22.902344 C 21.226562 22.902344 21.226562 22.902344 21.222656 22.902344 C 21.21875 22.90625 21.214844 22.914062 21.210938 22.917969 C 21.210938 22.917969 21.210938 22.921875 21.210938 22.921875 C 21.191406 22.949219 21.175781 22.976562 21.164062 23.003906 L 6.089844 59.570312 C 6.082031 59.585938 6.074219 59.605469 6.070312 59.621094 C 6.0625 59.664062 6.058594 59.707031 6.0625 59.75 L 9.109375 88.984375 L -6.617188 116.570312 C -6.617188 116.570312 -6.617188 116.574219 -6.617188 116.574219 C -6.648438 116.632812 -6.664062 116.691406 -6.664062 116.75 C -6.664062 116.785156 -6.660156 116.820312 -6.648438 116.855469 C -6.648438 116.855469 -6.648438 116.855469 -6.648438 116.859375 C -6.644531 116.878906 -6.636719 116.894531 -6.628906 116.910156 C -6.601562 116.972656 -6.554688 117.027344 -6.492188 117.066406 C -6.476562 117.074219 -6.464844 117.082031 -6.449219 117.089844 C -6.398438 117.113281 -6.347656 117.128906 -6.292969 117.121094 L 57.960938 117.277344 C 57.972656 117.277344 57.984375 117.273438 57.992188 117.277344 C 57.992188 117.273438 57.992188 117.273438 57.992188 117.273438 C 58.027344 117.273438 58.058594 117.265625 58.085938 117.253906 C 58.085938 117.253906 58.085938 117.253906 58.089844 117.253906 C 58.132812 117.238281 58.171875 117.214844 58.207031 117.183594 L 92.039062 86.949219 C 92.054688 86.933594 92.070312 86.917969 92.082031 86.902344 C 92.121094 86.851562 92.148438 86.789062 92.160156 86.71875 L 94.417969 68.734375 L 114.699219 23.347656 C 114.707031 23.335938 114.710938 23.320312 114.714844 23.308594 C 114.738281 23.238281 114.738281 23.167969 114.722656 23.105469 C 114.71875 23.078125 114.710938 23.050781 114.695312 23.027344 Z M 67.308594 -1.054688 L 64.117188 41.710938 L 22.339844 23.113281 Z M 38.796875 46.648438 L 22.597656 24.035156 L 63.210938 42.117188 Z M 63.914062 42.730469 L 59.972656 55.453125 L 39.929688 47.191406 Z M 38.925781 48.492188 L 53.101562 77.34375 L 36.546875 93.660156 Z M 39.394531 47.769531 L 59.753906 56.160156 L 53.472656 76.425781 Z M 60.441406 56.445312 L 84.964844 66.554688 L 54.117188 76.84375 Z M 60.660156 55.738281 L 64.605469 43 L 84.679688 65.640625 Z M 21.589844 23.898438 L 38.054688 46.886719 L 7.097656 59.050781 Z M 38.234375 47.609375 L 35.808594 93.648438 L 7.042969 59.867188 Z M 6.917969 60.859375 L 35.148438 94.011719 L 9.824219 88.757812 Z M 9.671875 89.480469 L 35.039062 94.746094 L -5.351562 115.84375 Z M -4.796875 116.386719 L 36.054688 95.046875 L 57.082031 116.535156 Z M 36.648438 94.597656 L 53.269531 78.21875 L 57.476562 115.878906 Z M 58.25 116.152344 L 53.976562 77.902344 L 91.023438 86.867188 Z M 54.890625 77.363281 L 85.769531 67.0625 L 91.261719 86.164062 Z M 91.652344 84.839844 L 86.550781 67.109375 L 93.652344 68.910156 Z M 93.851562 68.195312 L 86.609375 66.363281 L 112.128906 27.296875 Z M 85.972656 65.984375 L 65.078125 42.417969 L 113.433594 23.945312 Z M 64.859375 41.71875 L 68.054688 -1.105469 L 113.476562 23.136719 Z M 64.859375 41.71875 " fill-opacity="1" fill-rule="nonzero"/></g></g></g></g></g><g clip-path="url(#ae1369dd77)"><g mask="url(#07547aeec6)"><g transform="matrix(1, 0, 0, 1, 109, 69)"><g clip-path="url(#65d137a030)"><g clip-path="url(#72268e78b4)"><path fill="#5efaf7" d="M 223.941406 70.8125 C 223.933594 70.769531 223.921875 70.730469 223.910156 70.691406 C 223.910156 70.691406 223.90625 70.691406 223.90625 70.691406 C 223.898438 70.664062 223.886719 70.640625 223.875 70.621094 L 200.667969 29.296875 C 200.644531 29.257812 200.617188 29.21875 200.585938 29.183594 C 200.585938 29.183594 200.582031 29.183594 200.582031 29.183594 C 200.523438 29.121094 200.453125 29.070312 200.371094 29.035156 C 200.371094 29.035156 200.367188 29.035156 200.367188 29.035156 C 200.359375 29.03125 200.351562 29.03125 200.34375 29.027344 L 127.03125 2.292969 C 126.964844 2.265625 126.890625 2.25 126.8125 2.25 C 126.777344 2.246094 126.742188 2.253906 126.707031 2.261719 C 126.597656 2.28125 126.5 2.328125 126.421875 2.394531 C 126.378906 2.429688 126.34375 2.46875 126.316406 2.511719 C 126.246094 2.609375 126.207031 2.730469 126.207031 2.855469 C 126.207031 2.875 126.210938 2.894531 126.210938 2.914062 C 126.210938 2.914062 126.210938 2.914062 126.210938 2.917969 C 126.210938 2.921875 126.210938 2.925781 126.210938 2.933594 L 130.109375 34.1875 L 111.863281 59.097656 C 111.816406 59.164062 111.78125 59.238281 111.761719 59.320312 C 111.753906 59.339844 111.753906 59.359375 111.75 59.378906 C 111.75 59.378906 111.75 59.382812 111.75 59.382812 C 111.75 59.382812 111.75 59.382812 111.75 59.386719 C 111.746094 59.402344 111.746094 59.417969 111.746094 59.4375 L 110.363281 98.609375 C 110.359375 98.652344 110.363281 98.703125 110.371094 98.746094 C 110.371094 98.75 110.371094 98.75 110.371094 98.75 C 110.371094 98.75 110.371094 98.753906 110.371094 98.753906 C 110.371094 98.757812 110.371094 98.761719 110.375 98.765625 C 110.375 98.769531 110.375 98.769531 110.375 98.769531 C 110.375 98.769531 110.375 98.773438 110.375 98.773438 C 110.375 98.777344 110.375 98.777344 110.375 98.777344 C 110.402344 98.886719 110.457031 98.980469 110.53125 99.058594 L 150.605469 140.722656 C 150.726562 140.84375 150.882812 140.90625 151.042969 140.90625 C 151.050781 140.90625 151.0625 140.90625 151.074219 140.90625 L 216.867188 138.035156 C 216.871094 138.035156 216.871094 138.03125 216.875 138.035156 C 216.875 138.035156 216.875 138.03125 216.875 138.035156 C 216.878906 138.035156 216.878906 138.035156 216.878906 138.035156 C 216.878906 138.035156 216.878906 138.035156 216.882812 138.035156 C 217.011719 138.027344 217.132812 137.976562 217.226562 137.898438 C 217.265625 137.867188 217.300781 137.828125 217.328125 137.789062 C 217.394531 137.703125 217.433594 137.597656 217.445312 137.484375 C 217.445312 137.464844 217.445312 137.441406 217.445312 137.421875 L 217.371094 88.199219 L 223.90625 71.140625 C 223.914062 71.125 223.917969 71.109375 223.925781 71.089844 C 223.957031 70.996094 223.960938 70.902344 223.941406 70.8125 C 223.945312 70.8125 223.941406 70.8125 223.941406 70.8125 Z M 144.132812 82.613281 L 163.917969 41.902344 L 174.28125 63.03125 Z M 174.261719 64.488281 L 171.222656 84.707031 L 144.574219 83.769531 Z M 167.265625 98.773438 L 113.695312 98.070312 L 142.605469 84.980469 Z M 145.113281 85 L 171.042969 85.914062 L 169.160156 98.453125 Z M 172.261719 85.953125 L 203.320312 87.050781 L 170.375 98.507812 Z M 172.441406 84.75 L 175.507812 64.332031 L 204.636719 85.886719 Z M 175.167969 62.089844 L 164.773438 40.894531 L 198.554688 30.707031 Z M 198.222656 29.539062 L 164.089844 39.835938 L 129.128906 4.34375 Z M 127.632812 4.554688 L 162.132812 39.574219 L 131.285156 33.835938 Z M 131.003906 35.015625 L 161.636719 40.710938 L 114.023438 58.199219 Z M 162.714844 41.609375 L 142.425781 83.351562 L 113.550781 59.660156 Z M 112.910156 60.703125 L 141.496094 84.15625 L 111.605469 97.683594 Z M 150.863281 139.242188 L 112.410156 99.261719 L 168.691406 100.003906 Z M 152.003906 139.65625 L 169.855469 100.371094 L 215.21875 136.898438 Z M 170.847656 99.625 L 206.109375 87.359375 L 215.921875 135.910156 Z M 207.332031 87.289062 L 216.164062 88.609375 L 216.230469 131.332031 Z M 216.378906 87.417969 L 207.894531 86.152344 L 221.84375 73.152344 Z M 206.523438 85.777344 L 177.410156 64.234375 L 222.027344 71.328125 Z M 176.144531 62.804688 L 200.066406 30.703125 L 222.207031 70.128906 Z M 176.144531 62.804688 " fill-opacity="1" fill-rule="nonzero"/></g><g clip-path="url(#9a50201802)"><path fill="#ffffff" d="M 200.191406 447.894531 C 200.179688 447.851562 200.167969 447.8125 200.144531 447.769531 C 200.113281 447.710938 200.074219 447.65625 200.027344 447.609375 L 128.597656 376.257812 C 128.589844 376.25 128.582031 376.242188 128.574219 376.234375 C 128.574219 376.234375 128.574219 376.230469 128.570312 376.230469 C 128.476562 376.144531 128.355469 376.09375 128.230469 376.082031 L 73.425781 370.144531 C 73.386719 370.136719 73.347656 370.132812 73.304688 370.140625 C 73.253906 370.144531 73.203125 370.15625 73.15625 370.167969 C 73.15625 370.171875 73.15625 370.171875 73.15625 370.171875 C 73.15625 370.171875 73.152344 370.171875 73.152344 370.171875 C 73.066406 370.199219 72.984375 370.253906 72.917969 370.320312 C 72.902344 370.339844 72.886719 370.355469 72.875 370.375 L 60.195312 386.582031 L 11.925781 411.429688 C 11.910156 411.4375 11.894531 411.449219 11.882812 411.457031 C 11.78125 411.519531 11.703125 411.605469 11.652344 411.707031 C 11.632812 411.746094 11.617188 411.789062 11.609375 411.832031 C 11.609375 411.835938 11.609375 411.835938 11.609375 411.835938 C 11.582031 411.957031 11.589844 412.085938 11.640625 412.210938 C 11.644531 412.222656 11.648438 412.230469 11.65625 412.242188 L 49.4375 489.890625 C 49.441406 489.890625 49.441406 489.894531 49.441406 489.898438 C 49.449219 489.910156 49.441406 489.898438 49.441406 489.898438 C 49.503906 490.019531 49.605469 490.121094 49.738281 490.175781 C 49.75 490.183594 49.757812 490.1875 49.769531 490.191406 L 115.316406 515.492188 C 115.328125 515.496094 115.335938 515.496094 115.34375 515.5 C 115.347656 515.5 115.347656 515.5 115.347656 515.503906 C 115.347656 515.503906 115.351562 515.503906 115.351562 515.503906 C 115.410156 515.523438 115.472656 515.53125 115.535156 515.53125 C 115.597656 515.53125 115.660156 515.523438 115.722656 515.503906 C 115.765625 515.488281 115.804688 515.472656 115.84375 515.449219 L 153.371094 494 C 153.382812 493.996094 153.394531 493.988281 153.40625 493.976562 C 153.40625 493.976562 153.410156 493.976562 153.410156 493.976562 C 153.410156 493.976562 153.410156 493.976562 153.414062 493.972656 C 153.425781 493.960938 153.441406 493.953125 153.457031 493.941406 C 153.457031 493.9375 153.457031 493.9375 153.460938 493.9375 C 153.515625 493.890625 153.558594 493.835938 153.59375 493.777344 C 153.59375 493.777344 153.59375 493.777344 153.59375 493.773438 C 153.59375 493.773438 153.597656 493.769531 153.597656 493.769531 C 153.609375 493.746094 153.621094 493.71875 153.632812 493.695312 L 166.785156 459.9375 L 199.796875 448.621094 C 199.804688 448.621094 199.8125 448.617188 199.816406 448.613281 C 199.953125 448.5625 200.058594 448.46875 200.125 448.351562 C 200.15625 448.300781 200.175781 448.25 200.191406 448.195312 C 200.203125 448.148438 200.207031 448.097656 200.207031 448.046875 C 200.210938 447.996094 200.207031 447.945312 200.191406 447.894531 Z M 197.09375 446.390625 L 140.324219 423.71875 L 129.273438 378.640625 Z M 139.03125 423.523438 L 111.53125 422.210938 L 128.042969 378.71875 Z M 138.742188 424.71875 L 110.671875 468.867188 L 111.265625 423.410156 Z M 127.324219 377.203125 L 110.503906 421.503906 L 74.632812 371.492188 Z M 90.289062 437.644531 L 78.984375 446.320312 L 69.75 401.710938 Z M 70.027344 399.761719 L 109.582031 422.84375 L 91.253906 436.902344 Z M 90.894531 438.707031 L 108.0625 468.75 L 79.582031 447.386719 Z M 91.863281 437.964844 L 110.046875 424.015625 L 109.464844 468.761719 Z M 73.691406 372.257812 L 108.523438 420.820312 L 69.054688 397.792969 Z M 72.320312 373.050781 L 68.046875 396.574219 L 61.347656 387.082031 Z M 60.398438 387.839844 L 67.378906 397.726562 L 17.066406 410.148438 Z M 67.917969 398.839844 L 77.730469 446.246094 L 13.878906 412.179688 Z M 13.558594 413.382812 L 77.710938 447.597656 L 50.066406 488.414062 Z M 50.910156 489.332031 L 78.53125 448.546875 L 114.210938 513.761719 Z M 80.460938 449.550781 L 109.472656 471.320312 L 114.539062 511.84375 Z M 116.023438 513.949219 L 110.785156 472.0625 L 151.808594 493.496094 Z M 110.90625 470.757812 L 139.503906 425.777344 L 152.242188 492.355469 Z M 153.269531 491.292969 L 140.894531 426.617188 L 165.640625 459.550781 Z M 166.546875 458.742188 L 141.59375 425.527344 L 197.867188 448.003906 Z M 166.546875 458.742188 " fill-opacity="1" fill-rule="nonzero"/></g><g clip-path="url(#3447e08860)"><path fill="#5efaf7" d="M 206.855469 134.753906 C 206.839844 134.652344 206.796875 134.550781 206.726562 134.46875 C 206.707031 134.441406 206.683594 134.417969 206.660156 134.398438 C 206.660156 134.398438 206.660156 134.394531 206.660156 134.394531 C 206.601562 134.34375 206.53125 134.304688 206.460938 134.28125 L 110.761719 97.820312 C 110.746094 97.816406 110.730469 97.8125 110.714844 97.804688 C 110.621094 97.777344 110.527344 97.773438 110.4375 97.789062 C 110.4375 97.789062 110.433594 97.789062 110.433594 97.789062 C 110.433594 97.789062 110.433594 97.789062 110.429688 97.789062 C 110.429688 97.789062 110.425781 97.789062 110.425781 97.789062 C 110.425781 97.789062 110.421875 97.789062 110.421875 97.789062 C 110.421875 97.789062 110.417969 97.789062 110.417969 97.789062 C 110.417969 97.789062 110.414062 97.792969 110.410156 97.792969 C 110.40625 97.792969 110.402344 97.792969 110.394531 97.796875 C 110.394531 97.796875 110.390625 97.796875 110.390625 97.796875 C 110.386719 97.796875 110.386719 97.796875 110.386719 97.796875 C 110.382812 97.796875 110.382812 97.796875 110.382812 97.796875 C 110.382812 97.796875 110.378906 97.796875 110.378906 97.800781 C 110.367188 97.800781 110.355469 97.804688 110.339844 97.8125 L 51.8125 118.878906 C 51.78125 118.886719 51.753906 118.898438 51.726562 118.914062 C 51.695312 118.929688 51.667969 118.949219 51.640625 118.96875 C 51.640625 118.96875 51.636719 118.96875 51.636719 118.96875 C 51.566406 119.027344 51.507812 119.097656 51.464844 119.183594 C 51.464844 119.183594 51.464844 119.1875 51.464844 119.1875 C 51.457031 119.207031 51.445312 119.226562 51.441406 119.246094 L 43.257812 141.816406 L 0.875 190.613281 C 0.859375 190.628906 0.847656 190.648438 0.832031 190.667969 C 0.765625 190.761719 0.730469 190.867188 0.722656 190.972656 C 0.722656 190.972656 0.722656 190.972656 0.722656 190.976562 C 0.722656 191.019531 0.722656 191.066406 0.730469 191.113281 C 0.75 191.230469 0.800781 191.339844 0.886719 191.433594 C 0.886719 191.433594 0.886719 191.433594 0.890625 191.433594 C 0.898438 191.441406 0.902344 191.449219 0.910156 191.453125 L 63.722656 250.824219 C 63.832031 250.929688 63.980469 250.992188 64.140625 250.992188 C 64.152344 250.992188 64.164062 250.992188 64.179688 250.992188 C 64.179688 250.992188 64.183594 250.992188 64.183594 250.992188 C 64.1875 250.992188 64.191406 250.992188 64.195312 250.992188 L 139.746094 244.085938 C 139.859375 244.074219 139.96875 244.035156 140.0625 243.960938 C 140.066406 243.964844 140.0625 243.960938 140.0625 243.960938 C 140.0625 243.960938 140.066406 243.960938 140.066406 243.960938 L 140.066406 243.957031 C 140.066406 243.957031 140.066406 243.957031 140.070312 243.957031 C 140.109375 243.925781 140.144531 243.890625 140.171875 243.855469 L 172.453125 203.800781 C 172.476562 203.769531 172.5 203.730469 172.519531 203.695312 C 172.519531 203.695312 172.523438 203.691406 172.523438 203.691406 C 172.558594 203.617188 172.578125 203.542969 172.582031 203.464844 L 175.886719 163.003906 L 206.660156 135.292969 C 206.769531 135.195312 206.835938 135.0625 206.855469 134.925781 C 206.863281 134.871094 206.863281 134.8125 206.855469 134.753906 Z M 203.53125 134.457031 L 137.40625 139.710938 L 112.023438 99.597656 Z M 111.011719 100.257812 L 136.199219 140.0625 L 107.1875 152.371094 Z M 90.679688 177.183594 L 57.117188 150.132812 L 105.464844 153.84375 Z M 106.304688 154.777344 L 119.476562 200.386719 L 91.628906 177.945312 Z M 90.03125 178.210938 L 80.859375 192.6875 L 57.363281 151.882812 Z M 90.980469 178.972656 L 118.265625 200.964844 L 81.808594 193.449219 Z M 120.167969 202.59375 L 138.007812 241.269531 L 83.046875 194.933594 Z M 107.242188 153.664062 L 136.183594 141.382812 L 120.566406 199.800781 Z M 109.867188 99.269531 L 105.980469 152.273438 L 53.390625 119.59375 Z M 104.089844 152.523438 L 55.773438 148.816406 L 52.742188 120.617188 Z M 51.6875 122.117188 L 54.488281 148.199219 L 44.523438 141.882812 Z M 43.90625 142.921875 L 54.175781 149.429688 L 5.78125 186.8125 Z M 55.046875 150.28125 L 79.765625 193.214844 L 3.023438 190.472656 Z M 63.839844 249.277344 L 2.90625 191.683594 L 80.035156 194.429688 Z M 64.972656 249.710938 L 81.152344 194.921875 L 138.195312 243.015625 Z M 139.835938 242.347656 L 121.546875 202.691406 L 170.742188 204 Z M 121.375 201.476562 L 137.289062 141.949219 L 170.9375 202.792969 Z M 171.542969 201.378906 L 138.6875 141.980469 L 174.671875 163.050781 Z M 175.230469 161.972656 L 139.058594 140.792969 L 204.527344 135.59375 Z M 175.230469 161.972656 " fill-opacity="1" fill-rule="nonzero"/></g><g clip-path="url(#2540e8266d)"><path fill="#ffffff" d="M 271.386719 217.710938 C 271.386719 217.707031 271.386719 217.707031 271.386719 217.710938 C 271.339844 217.621094 271.273438 217.539062 271.1875 217.480469 C 271.167969 217.46875 271.148438 217.457031 271.125 217.445312 L 194.75 176.679688 C 194.71875 176.664062 194.683594 176.648438 194.652344 176.636719 C 194.632812 176.632812 194.613281 176.625 194.597656 176.621094 C 194.46875 176.589844 194.324219 176.601562 194.195312 176.664062 C 194.183594 176.667969 194.175781 176.671875 194.167969 176.679688 L 118.457031 217.363281 C 118.394531 217.394531 118.335938 217.441406 118.285156 217.5 C 118.285156 217.5 118.285156 217.5 118.28125 217.503906 C 118.273438 217.511719 118.269531 217.519531 118.261719 217.527344 C 118.261719 217.53125 118.261719 217.53125 118.261719 217.53125 C 118.261719 217.53125 118.261719 217.535156 118.257812 217.535156 C 118.257812 217.535156 118.257812 217.535156 118.257812 217.539062 C 118.226562 217.582031 118.199219 217.625 118.179688 217.671875 L 93.488281 277.5625 C 93.476562 277.59375 93.46875 277.621094 93.460938 277.652344 C 93.445312 277.71875 93.4375 277.789062 93.445312 277.859375 L 98.433594 325.742188 L 72.679688 370.925781 C 72.679688 370.929688 72.679688 370.933594 72.675781 370.9375 C 72.625 371.03125 72.601562 371.128906 72.601562 371.226562 C 72.601562 371.285156 72.609375 371.339844 72.625 371.394531 C 72.625 371.394531 72.625 371.398438 72.625 371.398438 C 72.625 371.398438 72.625 371.398438 72.625 371.402344 C 72.632812 371.433594 72.644531 371.460938 72.65625 371.488281 C 72.703125 371.589844 72.78125 371.679688 72.882812 371.742188 C 72.90625 371.757812 72.925781 371.769531 72.949219 371.777344 C 73.035156 371.816406 73.121094 371.84375 73.210938 371.835938 L 178.453125 372.085938 C 178.453125 372.085938 178.457031 372.085938 178.457031 372.085938 C 178.472656 372.085938 178.496094 372.082031 178.503906 372.085938 C 178.503906 372.082031 178.507812 372.082031 178.507812 372.085938 C 178.5625 372.078125 178.613281 372.066406 178.660156 372.050781 C 178.664062 372.050781 178.664062 372.050781 178.664062 372.050781 C 178.734375 372.023438 178.800781 371.984375 178.859375 371.933594 L 234.273438 322.410156 C 234.300781 322.386719 234.324219 322.363281 234.34375 322.335938 C 234.34375 322.335938 234.34375 322.332031 234.347656 322.332031 C 234.410156 322.25 234.457031 322.148438 234.472656 322.035156 L 238.171875 292.574219 L 271.394531 218.234375 C 271.402344 218.210938 271.410156 218.191406 271.417969 218.167969 C 271.453125 218.054688 271.457031 217.941406 271.429688 217.835938 C 271.421875 217.792969 271.40625 217.75 271.386719 217.710938 Z M 193.769531 178.265625 L 188.542969 248.316406 L 120.113281 217.847656 Z M 147.0625 256.398438 L 120.527344 219.355469 L 187.054688 248.976562 Z M 188.207031 249.984375 L 181.75 270.824219 L 148.921875 257.285156 Z M 147.277344 259.421875 L 170.496094 306.679688 L 143.378906 333.40625 Z M 148.042969 258.234375 L 181.390625 271.984375 L 171.105469 305.171875 Z M 182.515625 272.445312 L 222.6875 289.003906 L 172.160156 305.855469 Z M 182.875 271.285156 L 189.339844 250.425781 L 222.222656 287.507812 Z M 118.882812 219.136719 L 145.851562 256.789062 L 95.144531 276.714844 Z M 146.140625 257.972656 L 142.167969 333.382812 L 95.054688 278.050781 Z M 94.847656 279.675781 L 141.085938 333.980469 L 99.609375 325.371094 Z M 99.363281 326.554688 L 140.910156 335.179688 L 74.753906 369.738281 Z M 75.660156 370.628906 L 142.574219 335.675781 L 177.015625 370.871094 Z M 143.546875 334.941406 L 170.769531 308.109375 L 177.664062 369.800781 Z M 178.933594 370.246094 L 171.929688 307.597656 L 232.609375 322.277344 Z M 173.425781 306.710938 L 224.003906 289.839844 L 233.003906 321.125 Z M 233.640625 318.957031 L 225.285156 289.914062 L 236.917969 292.863281 Z M 237.238281 291.695312 L 225.378906 288.691406 L 267.183594 224.699219 Z M 224.335938 288.070312 L 190.113281 249.46875 L 269.320312 219.214844 Z M 189.753906 248.324219 L 194.988281 178.179688 L 269.390625 217.890625 Z M 189.753906 248.324219 " fill-opacity="1" fill-rule="nonzero"/></g></g></g></g></g><g clip-path="url(#03d480c325)"><path fill="#34e1f1" d="M -46.640625 504.984375 L -43.257812 501.597656 L -80.601562 501.597656 C -80.78125 502.4375 -81.527344 503.070312 -82.425781 503.070312 C -83.457031 503.070312 -84.289062 502.234375 -84.289062 501.203125 C -84.289062 500.179688 -83.457031 499.339844 -82.425781 499.339844 C -81.527344 499.339844 -80.78125 499.972656 -80.601562 500.8125 L -42.472656 500.8125 L -32.523438 490.867188 L -32.246094 490.753906 L -2.164062 490.753906 L -1.972656 490.808594 L 8.863281 497.0625 L 27.980469 497.0625 L 52.539062 482.882812 L 32.667969 482.882812 L 19.304688 490.59375 C 19.363281 490.777344 19.398438 490.96875 19.398438 491.167969 C 19.398438 492.195312 18.5625 493.03125 17.535156 493.03125 C 16.503906 493.03125 15.667969 492.195312 15.667969 491.167969 C 15.667969 490.136719 16.503906 489.304688 17.535156 489.304688 C 18.078125 489.304688 18.574219 489.542969 18.917969 489.917969 L 32.367188 482.152344 L 32.5625 482.097656 L 101.335938 482.097656 C 101.515625 481.257812 102.261719 480.625 103.160156 480.625 C 104.191406 480.625 105.023438 481.460938 105.023438 482.488281 C 105.023438 483.519531 104.191406 484.351562 103.160156 484.351562 C 102.261719 484.351562 101.515625 483.722656 101.335938 482.882812 L 54.101562 482.882812 L 42.5 489.582031 L 84.738281 489.582031 C 84.921875 488.738281 85.667969 488.109375 86.566406 488.109375 C 87.59375 488.109375 88.425781 488.945312 88.425781 489.96875 C 88.425781 491 87.59375 491.835938 86.566406 491.835938 C 85.671875 491.835938 84.921875 491.203125 84.738281 490.363281 L 41.140625 490.363281 L 28.28125 497.792969 L 28.082031 497.847656 L 10.222656 497.847656 L 20.117188 503.558594 L 58.523438 503.558594 C 58.707031 502.71875 59.453125 502.085938 60.347656 502.085938 C 61.378906 502.085938 62.210938 502.917969 62.210938 503.949219 C 62.210938 504.980469 61.378906 505.8125 60.347656 505.8125 C 59.453125 505.8125 58.707031 505.183594 58.523438 504.34375 L 20.015625 504.34375 L 19.816406 504.289062 L 8.570312 497.792969 L 4.3125 495.335938 L -15.382812 495.335938 L -3.953125 501.933594 C -3.613281 501.554688 -3.121094 501.320312 -2.570312 501.320312 C -1.539062 501.320312 -0.707031 502.15625 -0.707031 503.183594 C -0.707031 504.214844 -1.539062 505.046875 -2.570312 505.046875 C -3.601562 505.046875 -4.433594 504.214844 -4.433594 503.183594 C -4.433594 502.984375 -4.402344 502.789062 -4.347656 502.613281 L -16.945312 495.335938 L -35.886719 495.335938 L -46.085938 505.535156 C -45.898438 505.828125 -45.789062 506.175781 -45.789062 506.550781 C -45.789062 507.578125 -46.621094 508.414062 -47.652344 508.414062 C -48.683594 508.414062 -49.515625 507.578125 -49.515625 506.550781 C -49.515625 505.519531 -48.683594 504.683594 -47.652344 504.683594 C -47.277344 504.683594 -46.933594 504.792969 -46.640625 504.984375 Z M 2.953125 494.550781 L -2.265625 491.539062 L -32.082031 491.539062 L -35.101562 494.550781 Z M 2.953125 494.550781 " fill-opacity="1" fill-rule="nonzero"/></g><g clip-path="url(#d4a2c616e2)"><path fill="#34e1f1" d="M 312.773438 39.929688 L 309.390625 36.546875 L 346.734375 36.546875 C 346.914062 37.386719 347.660156 38.019531 348.558594 38.019531 C 349.589844 38.019531 350.421875 37.183594 350.421875 36.152344 C 350.421875 35.125 349.589844 34.289062 348.558594 34.289062 C 347.660156 34.289062 346.914062 34.921875 346.734375 35.761719 L 308.605469 35.761719 L 298.65625 25.816406 L 298.378906 25.703125 L 268.296875 25.703125 L 268.105469 25.753906 L 257.269531 32.011719 L 238.152344 32.011719 L 213.59375 17.832031 L 233.464844 17.832031 L 246.828125 25.542969 C 246.769531 25.726562 246.734375 25.917969 246.734375 26.117188 C 246.734375 27.144531 247.574219 27.976562 248.597656 27.976562 C 249.628906 27.976562 250.464844 27.144531 250.464844 26.117188 C 250.464844 25.085938 249.628906 24.253906 248.597656 24.253906 C 248.054688 24.253906 247.558594 24.492188 247.214844 24.867188 L 233.765625 17.101562 L 233.570312 17.046875 L 164.796875 17.046875 C 164.617188 16.207031 163.871094 15.574219 162.972656 15.574219 C 161.945312 15.574219 161.109375 16.40625 161.109375 17.4375 C 161.109375 18.46875 161.945312 19.300781 162.972656 19.300781 C 163.871094 19.300781 164.617188 18.671875 164.796875 17.832031 L 212.03125 17.832031 L 223.632812 24.527344 L 181.394531 24.527344 C 181.210938 23.6875 180.464844 23.054688 179.570312 23.054688 C 178.539062 23.054688 177.707031 23.894531 177.707031 24.917969 C 177.707031 25.949219 178.539062 26.785156 179.570312 26.785156 C 180.460938 26.785156 181.210938 26.152344 181.394531 25.3125 L 224.992188 25.3125 L 237.851562 32.742188 L 238.050781 32.792969 L 255.910156 32.792969 L 246.015625 38.507812 L 207.609375 38.507812 C 207.425781 37.667969 206.679688 37.035156 205.785156 37.035156 C 204.753906 37.035156 203.921875 37.867188 203.921875 38.898438 C 203.921875 39.925781 204.753906 40.761719 205.785156 40.761719 C 206.679688 40.761719 207.425781 40.132812 207.609375 39.292969 L 246.117188 39.292969 L 246.316406 39.238281 L 257.566406 32.742188 L 261.820312 30.285156 L 281.515625 30.285156 L 270.085938 36.882812 C 269.746094 36.503906 269.253906 36.269531 268.703125 36.269531 C 267.671875 36.269531 266.839844 37.101562 266.839844 38.132812 C 266.839844 39.164062 267.671875 39.996094 268.703125 39.996094 C 269.734375 39.996094 270.566406 39.164062 270.566406 38.132812 C 270.566406 37.933594 270.535156 37.738281 270.480469 37.5625 L 283.078125 30.285156 L 302.019531 30.285156 L 312.21875 40.484375 C 312.03125 40.777344 311.921875 41.125 311.921875 41.5 C 311.921875 42.523438 312.757812 43.363281 313.785156 43.363281 C 314.816406 43.363281 315.648438 42.523438 315.648438 41.5 C 315.648438 40.46875 314.816406 39.632812 313.785156 39.632812 C 313.410156 39.632812 313.066406 39.742188 312.773438 39.929688 Z M 263.179688 29.5 L 268.402344 26.488281 L 298.21875 26.488281 L 301.234375 29.5 Z M 263.179688 29.5 " fill-opacity="1" fill-rule="nonzero"/></g></svg>