<svg xmlns="http://www.w3.org/2000/svg" xmlns:xlink="http://www.w3.org/1999/xlink" width="300" zoomAndPan="magnify" viewBox="0 0 224.87999 225" height="300" preserveAspectRatio="xMidYMid meet" version="1.0"><defs><filter x="0%" y="0%" width="100%" height="100%" id="7e1906e900"><feColorMatrix values="0 0 0 0 1 0 0 0 0 1 0 0 0 0 1 0 0 0 1 0" color-interpolation-filters="sRGB"/></filter><clipPath id="4b64df4a52"><path d="M 61 14 L 165 14 L 165 187.164062 L 61 187.164062 Z M 61 14 " clip-rule="nonzero"/></clipPath><clipPath id="51b77f3564"><path d="M 22.488281 69 L 99 69 L 99 141 L 22.488281 141 Z M 22.488281 69 " clip-rule="nonzero"/></clipPath><mask id="8f38f269c5"><g filter="url(#7e1906e900)"><rect x="-22.487999" width="269.855988" fill="#000000" y="-22.5" height="270" fill-opacity="0.86"/></g></mask><clipPath id="ee8144b42f"><path d="M 0.347656 46 L 61.8125 46 L 61.8125 63.410156 L 0.347656 63.410156 Z M 0.347656 46 " clip-rule="nonzero"/></clipPath><clipPath id="127d30e2ae"><path d="M 11 1.941406 L 51 1.941406 L 51 59 L 11 59 Z M 11 1.941406 " clip-rule="nonzero"/></clipPath><clipPath id="b0a57456a0"><rect x="0" width="63" y="0" height="64"/></clipPath></defs><path fill="#c6d8fb" d="M 119.921875 171.886719 C 119.753906 181.15625 106.042969 181.121094 105.871094 171.886719 C 106.042969 162.621094 119.753906 162.621094 119.921875 171.886719 Z M 62.984375 132.507812 L 62.984375 172.363281 C 62.984375 179.492188 68.804688 185.332031 75.914062 185.332031 L 149.878906 185.332031 C 156.988281 185.332031 162.8125 179.492188 162.8125 172.363281 L 162.8125 149.039062 L 160.847656 147.648438 C 157.734375 147.988281 154.382812 148.023438 151.234375 147.785156 L 151.234375 157.085938 C 151.234375 157.800781 150.65625 158.410156 149.914062 158.410156 L 75.847656 158.410156 C 75.136719 158.410156 74.527344 157.832031 74.527344 157.085938 L 74.527344 135.5625 C 74.59375 137.601562 72.054688 138.957031 70.429688 137.703125 Z M 62.984375 132.507812 " fill-opacity="1" fill-rule="evenodd"/><path fill="#c6d8fb" d="M 74.5625 71.164062 L 74.5625 29.40625 C 74.5625 28.691406 75.136719 28.082031 75.878906 28.082031 L 149.304688 28.082031 C 151.773438 25.605469 153.703125 23.53125 155.09375 22.617188 C 155.261719 21.089844 155.871094 19.664062 156.785156 18.472656 C 154.789062 17.21875 152.417969 16.472656 149.914062 16.472656 L 75.914062 16.472656 C 68.804688 16.472656 62.984375 22.3125 62.984375 29.441406 L 62.984375 71.128906 L 74.5625 71.128906 Z M 74.5625 71.164062 " fill-opacity="1" fill-rule="evenodd"/><path fill="#c6d8fb" d="M 151.265625 71.707031 L 151.265625 100.902344 C 155.058594 100.597656 159.1875 100.730469 162.84375 101.242188 L 162.84375 74.421875 C 159.59375 73.503906 155.632812 72.417969 151.265625 71.707031 Z M 151.265625 71.707031 " fill-opacity="1" fill-rule="evenodd"/><path fill="#c6d8fb" d="M 122.867188 45.089844 C 123.8125 48.65625 129.535156 70.042969 130.347656 73.0625 C 143.449219 68.003906 157.328125 73.367188 169.308594 75.914062 C 168.699219 75.101562 168.261719 74.183594 167.988281 73.164062 L 155.296875 25.671875 C 155.023438 24.652344 154.957031 23.632812 155.058594 22.617188 C 146.15625 30.289062 137.964844 41.832031 122.730469 44.613281 Z M 122.867188 45.089844 " fill-opacity="1" fill-rule="evenodd"/><path fill="#c6d8fb" d="M 130.3125 73.0625 C 126.828125 73.914062 121.105469 76.050781 117.550781 75.304688 L 122.019531 92.074219 C 122.933594 95.503906 126.488281 97.574219 129.90625 96.65625 C 133.328125 95.742188 135.390625 92.175781 134.476562 88.746094 Z M 130.3125 73.0625 " fill-opacity="1" fill-rule="evenodd"/><g clip-path="url(#4b64df4a52)"><path fill="#428dff" d="M 149.878906 187.164062 L 75.914062 187.164062 C 67.789062 187.164062 61.15625 180.511719 61.15625 172.363281 L 61.15625 132.507812 C 61.1875 130.132812 64.777344 130.097656 64.8125 132.507812 L 64.8125 172.363281 C 64.8125 178.507812 69.789062 183.53125 75.914062 183.53125 L 149.878906 183.53125 C 156.007812 183.53125 161.015625 178.542969 161.015625 172.363281 L 161.015625 149.039062 C 160.984375 146.664062 164.671875 146.664062 164.671875 149.039062 L 164.671875 172.363281 C 164.636719 180.511719 158.003906 187.164062 149.878906 187.164062 Z M 162.8125 103.074219 C 161.796875 103.074219 160.984375 102.257812 160.984375 101.242188 L 160.984375 74.386719 C 160.984375 73.367188 161.796875 72.554688 162.8125 72.554688 C 163.828125 72.554688 164.636719 73.367188 164.636719 74.386719 L 164.636719 101.242188 C 164.636719 102.257812 163.828125 103.074219 162.8125 103.074219 Z M 62.984375 72.996094 C 61.96875 72.996094 61.15625 72.179688 61.15625 71.164062 L 61.15625 29.472656 C 61.15625 21.324219 67.789062 14.671875 75.914062 14.671875 L 149.878906 14.671875 C 152.382812 14.671875 159.898438 15.960938 158.308594 19.457031 C 157.765625 20.308594 156.648438 20.578125 155.804688 20.035156 C 154.042969 18.914062 151.976562 18.304688 149.878906 18.304688 L 75.914062 18.304688 C 69.789062 18.304688 64.8125 23.296875 64.8125 29.472656 L 64.8125 71.164062 C 64.8125 72.179688 64 72.996094 62.984375 72.996094 Z M 62.984375 72.996094 " fill-opacity="1" fill-rule="nonzero"/></g><path fill="#428dff" d="M 149.945312 160.242188 L 75.847656 160.242188 C 74.121094 160.242188 72.699219 158.816406 72.699219 157.085938 L 72.699219 127.855469 C 72.699219 126.839844 73.511719 126.023438 74.527344 126.023438 C 75.542969 126.023438 76.355469 126.839844 76.355469 127.855469 L 76.355469 156.609375 L 149.4375 156.609375 L 149.4375 147.816406 C 149.4375 145.441406 153.0625 145.441406 153.09375 147.816406 L 153.09375 157.121094 C 153.09375 158.851562 151.671875 160.242188 149.945312 160.242188 Z M 151.265625 102.699219 C 150.25 102.699219 149.441406 101.886719 149.441406 100.867188 L 149.441406 71.671875 C 149.441406 70.652344 150.25 69.839844 151.265625 69.839844 C 152.28125 69.839844 153.09375 70.652344 153.09375 71.671875 L 153.09375 100.867188 C 153.09375 101.886719 152.25 102.699219 151.265625 102.699219 Z M 74.5625 72.996094 C 73.546875 72.996094 72.734375 72.179688 72.734375 71.164062 L 72.734375 29.40625 C 72.734375 27.675781 74.121094 26.25 75.878906 26.25 L 149.304688 26.25 C 150.320312 26.25 151.132812 27.0625 151.132812 28.082031 C 151.132812 29.101562 150.320312 29.914062 149.304688 29.914062 L 76.355469 29.914062 L 76.355469 71.164062 C 76.355469 72.179688 75.542969 72.996094 74.5625 72.996094 Z M 74.5625 72.996094 " fill-opacity="1" fill-rule="nonzero"/><path fill="#428dff" d="M 112.914062 180.75 C 101.269531 180.441406 101.269531 163.332031 112.914062 163.027344 C 124.558594 163.332031 124.558594 180.441406 112.914062 180.75 Z M 112.914062 166.660156 C 106.074219 166.796875 106.074219 176.980469 112.914062 177.082031 C 119.71875 176.980469 119.71875 166.796875 112.914062 166.660156 Z M 112.914062 166.660156 " fill-opacity="1" fill-rule="nonzero"/><g clip-path="url(#51b77f3564)"><path fill="#428dff" d="M 71.921875 140.042969 C 71.039062 140.042969 70.160156 139.773438 69.382812 139.230469 L 52.253906 127.210938 C 52.117188 127.109375 51.980469 127.074219 51.8125 127.074219 L 36.207031 127.074219 C 28.660156 127.074219 22.496094 120.898438 22.496094 113.328125 L 22.496094 83.078125 C 22.496094 75.507812 28.660156 69.328125 36.207031 69.328125 L 85.121094 69.328125 C 92.671875 69.328125 98.832031 75.507812 98.832031 83.078125 L 98.832031 113.328125 C 98.832031 120.898438 92.671875 127.074219 85.121094 127.074219 L 77.167969 127.074219 C 76.726562 127.074219 76.386719 127.414062 76.386719 127.855469 L 76.386719 135.597656 C 76.421875 138.007812 74.289062 140.078125 71.921875 140.042969 Z M 36.207031 72.996094 C 30.65625 72.996094 26.152344 77.511719 26.152344 83.078125 L 26.152344 113.328125 C 26.152344 118.894531 30.65625 123.410156 36.207031 123.410156 L 51.8125 123.410156 C 52.726562 123.410156 53.605469 123.679688 54.351562 124.222656 L 71.480469 136.242188 C 71.953125 136.613281 72.765625 136.207031 72.734375 135.597656 L 72.734375 127.855469 C 72.734375 125.414062 74.730469 123.410156 77.167969 123.410156 L 85.121094 123.410156 C 90.671875 123.410156 95.175781 118.894531 95.175781 113.328125 L 95.175781 83.078125 C 95.175781 77.511719 90.671875 72.996094 85.121094 72.996094 Z M 36.207031 72.996094 " fill-opacity="1" fill-rule="nonzero"/></g><path fill="#428dff" d="M 78.316406 92.347656 L 43.011719 92.347656 C 40.640625 92.347656 40.609375 88.714844 43.011719 88.679688 L 78.351562 88.679688 C 80.6875 88.714844 80.722656 92.347656 78.316406 92.347656 Z M 78.316406 92.347656 " fill-opacity="1" fill-rule="nonzero"/><path fill="#428dff" d="M 78.316406 107.691406 L 43.011719 107.691406 C 40.640625 107.691406 40.609375 104.058594 43.011719 104.023438 L 78.351562 104.023438 C 80.6875 104.058594 80.722656 107.691406 78.316406 107.691406 Z M 78.316406 107.691406 " fill-opacity="1" fill-rule="nonzero"/><path fill="#428dff" d="M 128.28125 98.695312 C 124.660156 98.730469 121.171875 96.082031 120.292969 92.550781 C 120.292969 92.550781 115.824219 75.78125 115.824219 75.78125 C 115.214844 73.472656 118.703125 72.519531 119.347656 74.828125 C 119.347656 74.828125 123.8125 91.597656 123.8125 91.597656 C 124.390625 94.011719 127.097656 95.570312 129.5 94.890625 C 131.972656 94.214844 133.429688 91.667969 132.785156 89.1875 L 127.367188 68.921875 C 126.691406 66.75 130.109375 65.527344 130.820312 67.769531 C 130.820312 67.769531 136.304688 88.273438 136.304688 88.273438 C 137.726562 93.398438 133.632812 98.761719 128.28125 98.695312 Z M 128.28125 98.695312 " fill-opacity="1" fill-rule="nonzero"/><path fill="#428dff" d="M 119.550781 77.273438 C 100.523438 77.101562 96.765625 49.945312 115.285156 44.75 C 115.285156 44.75 122.257812 42.882812 122.257812 42.882812 C 123.203125 42.613281 124.21875 43.1875 124.492188 44.171875 L 132.074219 72.589844 C 132.34375 73.574219 131.769531 74.558594 130.789062 74.828125 L 123.8125 76.695312 C 122.390625 77.070312 120.96875 77.273438 119.550781 77.273438 Z M 123.339844 74.929688 L 123.375 74.929688 Z M 121.445312 46.855469 L 116.230469 48.246094 C 99.984375 53.035156 106.414062 77.136719 122.898438 73.164062 L 128.113281 71.773438 Z M 121.445312 46.855469 " fill-opacity="1" fill-rule="nonzero"/><path fill="#428dff" d="M 169.277344 77.714844 C 157.835938 75.78125 145.445312 69.601562 130.957031 74.761719 C 129.976562 75.132812 128.824219 74.558594 128.585938 73.539062 C 127.503906 69.429688 122.1875 49.605469 120.96875 45.089844 C 120.835938 44.582031 120.902344 44.070312 121.207031 43.628906 C 121.476562 43.1875 121.917969 42.882812 122.425781 42.816406 C 137.523438 40.03125 145.175781 28.558594 154.042969 21.089844 C 154.890625 20.546875 156.007812 20.75 156.582031 21.597656 C 157.125 22.445312 156.921875 23.566406 156.074219 24.144531 C 147.644531 31.441406 140.0625 42.238281 125 46.007812 L 131.601562 70.6875 C 143.480469 67.121094 155.835938 70.550781 163.386719 72.65625 C 165.957031 73.367188 168.160156 73.980469 169.410156 74.046875 C 171.679688 74.183594 171.578125 77.75 169.277344 77.714844 Z M 169.277344 77.714844 " fill-opacity="1" fill-rule="nonzero"/><path fill="#428dff" d="M 175.84375 81.042969 C 171.441406 81.042969 167.378906 78.089844 166.195312 73.605469 L 153.535156 26.148438 C 151.03125 17.898438 160.847656 10.257812 168.191406 14.875 C 170.496094 16.234375 172.152344 18.371094 172.863281 20.953125 L 185.523438 68.414062 C 187.285156 74.660156 182.308594 81.144531 175.84375 81.042969 Z M 163.183594 17.183594 C 159.15625 17.082031 155.90625 21.324219 157.054688 25.195312 C 157.054688 25.195312 169.75 72.65625 169.75 72.65625 C 172.019531 80.667969 184.035156 77.511719 182.003906 69.363281 C 182.003906 69.363281 169.308594 21.902344 169.308594 21.902344 C 168.632812 19.1875 165.957031 17.148438 163.183594 17.183594 Z M 161.050781 15.621094 L 161.085938 15.621094 Z M 161.050781 15.621094 " fill-opacity="1" fill-rule="nonzero"/><path fill="#428dff" d="M 174.183594 158.207031 C 173.203125 158.207031 172.253906 157.902344 171.410156 157.289062 L 160.375 149.550781 C 140.0625 151.960938 117.449219 139.839844 118.058594 124.324219 C 118.058594 110.304688 134.78125 98.898438 155.363281 98.898438 C 187.148438 98.289062 207.628906 127.3125 179.09375 143.980469 C 179.058594 144.289062 179.09375 152.976562 179.09375 153.25 C 179.160156 155.964844 176.792969 158.242188 174.183594 158.207031 Z M 160.847656 145.847656 C 161.015625 145.203125 173.136719 154.199219 173.472656 154.300781 C 174.253906 154.914062 175.472656 154.269531 175.4375 153.285156 C 175.640625 151.417969 174.894531 143.371094 176.046875 141.84375 C 182.78125 137.703125 189.453125 131.488281 189.046875 124.359375 C 189.046875 112.34375 173.949219 102.566406 155.398438 102.566406 C 105.230469 105.042969 114.808594 149.71875 160.847656 145.847656 Z M 160.847656 145.847656 " fill-opacity="1" fill-rule="nonzero"/><path fill="#428dff" d="M 169.140625 125.921875 C 166.738281 125.921875 166.769531 122.253906 169.140625 122.222656 C 171.542969 122.222656 171.511719 125.921875 169.140625 125.921875 Z M 169.140625 125.921875 " fill-opacity="1" fill-rule="nonzero"/><path fill="#428dff" d="M 155.363281 125.921875 C 152.960938 125.921875 152.992188 122.253906 155.363281 122.222656 C 157.765625 122.222656 157.734375 125.921875 155.363281 125.921875 Z M 155.363281 125.921875 " fill-opacity="1" fill-rule="nonzero"/><path fill="#428dff" d="M 141.585938 125.921875 C 139.183594 125.921875 139.214844 122.253906 141.585938 122.222656 C 143.988281 122.222656 143.988281 125.921875 141.585938 125.921875 Z M 141.585938 125.921875 " fill-opacity="1" fill-rule="nonzero"/><g mask="url(#8f38f269c5)"><g transform="matrix(1, 0, 0, 1, 37, 2)"><g clip-path="url(#b0a57456a0)"><g clip-path="url(#ee8144b42f)"><path fill="#428dff" d="M 43.519531 46.027344 C 42.953125 45.957031 42.445312 46.359375 42.378906 46.921875 C 42.3125 47.488281 42.714844 47.996094 43.277344 48.0625 C 54.058594 49.332031 59.796875 52.75 59.796875 54.730469 C 59.796875 57.511719 48.878906 61.394531 31.097656 61.394531 C 13.316406 61.394531 2.394531 57.511719 2.394531 54.730469 C 2.394531 52.75 8.136719 49.332031 18.917969 48.0625 C 19.476562 47.996094 19.882812 47.488281 19.816406 46.921875 C 19.75 46.359375 19.242188 45.953125 18.675781 46.027344 C 7.882812 47.296875 0.347656 50.875 0.347656 54.730469 C 0.347656 59.0625 10.910156 63.445312 31.097656 63.445312 C 51.285156 63.445312 61.847656 59.0625 61.847656 54.730469 C 61.847656 50.875 54.308594 47.296875 43.519531 46.027344 " fill-opacity="1" fill-rule="evenodd"/></g><g clip-path="url(#127d30e2ae)"><path fill="#428dff" d="M 30.914062 58.070312 L 46.640625 35.359375 C 52.539062 27.496094 51.6875 14.570312 44.816406 7.699219 C 41.101562 3.988281 36.167969 1.941406 30.914062 1.941406 C 25.664062 1.941406 20.730469 3.988281 17.015625 7.699219 C 10.148438 14.570312 9.292969 27.492188 15.167969 35.328125 Z M 31.097656 14.242188 C 35.054688 14.242188 38.273438 17.460938 38.273438 21.417969 C 38.273438 25.375 35.054688 28.59375 31.097656 28.59375 C 27.140625 28.59375 23.921875 25.375 23.921875 21.417969 C 23.921875 17.460938 27.140625 14.242188 31.097656 14.242188 Z M 31.097656 14.242188 " fill-opacity="1" fill-rule="evenodd"/></g></g></g></g></svg>